<?xml version="1.0" ?><svg viewBox="0 0 223.48 227.57" xmlns="http://www.w3.org/2000/svg"><defs><style>.cls-1{fill:#ffc742;}.cls-2{fill:#f7ead0;}.cls-2,.cls-7{opacity:0.5;}.cls-3{fill:#efa536;}.cls-4{fill:#275563;}.cls-5{fill:#908152;}.cls-10,.cls-6{fill:#fff;}.cls-7,.cls-8{fill:#d9f0ff;}.cls-10,.cls-9{opacity:0.7;}</style></defs><title/><g data-name="Layer 2" id="Layer_2"><g data-name="Layer 1" id="Layer_1-2"><path class="cls-1" d="M204.58,66.4A13.14,13.14,0,0,0,191.5,54.61H32A13.14,13.14,0,0,0,18.91,66.4L4.07,209.07a13.14,13.14,0,0,0,13.07,14.5h189.2a13.14,13.14,0,0,0,13.07-14.5Z"/><rect class="cls-2" height="10.46" width="181.51" x="20.99" y="58.36"/><rect class="cls-3" height="10.46" width="211.48" x="6" y="209.42"/><path class="cls-4" d="M206.34,227.57H17.14A17.14,17.14,0,0,1,.09,208.65L14.93,66A17.1,17.1,0,0,1,32,50.61H191.5A17.1,17.1,0,0,1,208.55,66l3.71,35.72a4,4,0,1,1-8,.83L200.6,66.81a9.12,9.12,0,0,0-9.09-8.2H32a9.12,9.12,0,0,0-9.09,8.2L8,209.48a9.14,9.14,0,0,0,9.09,10.09h189.2a9.14,9.14,0,0,0,9.09-10.09l-5.19-49.91a4,4,0,1,1,8-.83l5.19,49.91a17.14,17.14,0,0,1-17.05,18.92Z"/><path class="cls-4" d="M168.7,65a4,4,0,0,1-4-4A53,53,0,1,0,58.78,61a4,4,0,0,1-8,0A61,61,0,1,1,172.7,61,4,4,0,0,1,168.7,65Z"/><ellipse class="cls-5" cx="111.74" cy="107.28" rx="44.38" ry="44.45"/><circle class="cls-6" cx="111.74" cy="96.16" r="44.45"/><path class="cls-7" d="M156.2,95.82A44.45,44.45,0,1,1,69.58,81.7c3.65,20.54,22.55,39,42.16,39s37.51-14.86,42.16-39A44.22,44.22,0,0,1,156.2,95.82Z"/><path class="cls-8" d="M156.2,95.14a44.45,44.45,0,1,1-88.91,0,45,45,0,0,1,.38-5.79,44.46,44.46,0,0,0,88.15,0A45,45,0,0,1,156.2,95.14Z"/><path class="cls-4" d="M111.74,143.83A48.45,48.45,0,1,1,160.2,95.37,48.51,48.51,0,0,1,111.74,143.83Zm0-88.91A40.45,40.45,0,1,0,152.2,95.37,40.5,40.5,0,0,0,111.74,54.92Z"/><path class="cls-4" d="M91.37,90.41V82.64q0-3.83,2.14-5.61a8.85,8.85,0,0,1,5.81-1.79A9,9,0,0,1,105.15,77q2.19,1.78,2.2,5.61v7.77q0,3.83-2.19,5.61a9,9,0,0,1-5.83,1.79A8.84,8.84,0,0,1,93.53,96Q91.37,94.25,91.37,90.41Zm5.26,0q0,2.63,2.71,2.62t2.76-2.63V82.63q0-2.63-2.77-2.62t-2.71,2.63Zm2.9,24.47a2.36,2.36,0,0,1,.27-1l18.83-39.5A2.29,2.29,0,0,1,120.88,73a3.45,3.45,0,0,1,2.22.82,2.57,2.57,0,0,1,1,2.08,2.35,2.35,0,0,1-.21,1L105,116.4a2.43,2.43,0,0,1-2.42,1.37,2.93,2.93,0,0,1-2.2-.9A2.81,2.81,0,0,1,99.53,114.88ZM116.14,108v-7.77q0-3.83,2.14-5.61a8.84,8.84,0,0,1,5.81-1.79,9,9,0,0,1,5.83,1.77q2.19,1.78,2.2,5.61V108q0,3.83-2.19,5.61a9,9,0,0,1-5.83,1.79,8.84,8.84,0,0,1-5.82-1.77Q116.14,111.85,116.14,108Zm5.26,0q0,2.63,2.71,2.62t2.76-2.63v-7.77q0-2.63-2.77-2.62t-2.71,2.63Z"/><path class="cls-4" d="M211.83,144.57a4,4,0,0,1-4-3.59l-.75-7.27a4,4,0,1,1,8-.82l.75,7.27a4,4,0,0,1-3.57,4.39Z"/><path class="cls-4" d="M209.78,124.68a4,4,0,0,1-4-3.59l0-.3a4,4,0,1,1,8-.82l0,.3a4,4,0,0,1-3.57,4.39Z"/><g class="cls-9"><path class="cls-6" d="M28.67,146.35h-.27a3,3,0,0,1-2.73-3.25l1-11.32a3,3,0,1,1,6,.53l-1,11.32A3,3,0,0,1,28.67,146.35Z"/><path class="cls-6" d="M30.51,125.53h-.27a3,3,0,0,1-2.73-3.25l.54-6.13a3,3,0,1,1,6,.53l-.54,6.13A3,3,0,0,1,30.51,125.53Z"/></g><circle class="cls-10" cx="27.43" cy="156.95" r="3.59" transform="translate(-131.31 170.53) rotate(-84.97)"/></g></g></svg>